<?xml version="1.0" encoding="UTF-8"?>
<svg id="Capa_2" data-name="Capa 2" xmlns="http://www.w3.org/2000/svg" viewBox="0 0 1490.5 1107.69">
  <defs>
    <style>
      .cls-1 {
        fill: #11abb3;
      }
    </style>
  </defs>
  <path class="cls-1" d="M978.74,116.71c-7.34,0-13.58,2.57-18.71,7.71-5.14,5.14-7.71,14.15-7.71,27.03s2.53,21.77,7.58,27.15c5.05,5.38,11.33,8.07,18.84,8.07s13.74-2.69,18.71-8.07c4.97-5.38,7.46-14.43,7.46-27.15s-2.57-21.89-7.71-27.03c-5.14-5.14-11.29-7.71-18.47-7.71Z"/>
  <path class="cls-1" d="M301.64,121.48c-5.22-3.99-11.42-5.99-18.59-5.99s-13.25,1.88-18.71,5.63c-5.47,3.75-8.77,9.78-9.91,18.1h55.28c-.16-7.83-2.85-13.74-8.07-17.73Z"/>
  <path class="cls-1" d="M1469.32,0v.02h-229.59c-.16,0-.33-.02-.49-.02v.02h-13.56s-.01,0-.02,0h-174.81c-.18,0-.35-.02-.53-.02v.02h-135.99c-.17,0-.34-.02-.51-.02v.02h-93.09c-.16,0-.33-.02-.49-.02v.02h-136.01c-.16,0-.33-.02-.49-.02v.02h-13.56s-.01,0-.02,0h-174.81c-.18,0-.35-.02-.53-.02v.02h-229.59c-.16,0-.33-.02-.49-.02v.02h-13.56s-.01,0-.02,0H21.1C9.58-.1.14,8.16,0,18.47v219.05c.14,10.32,9.58,18.58,21.1,18.47h243.64s.01,0,.02,0h175.32s.01,0,.02,0h380.14s.01,0,.02,0h175.32s.01,0,.02,0h243.64s.01,0,.02,0h230.06c11.54.13,21.02-8.14,21.18-18.47V18.45c-.16-10.33-9.64-18.59-21.18-18.45ZM202.33,212.6h-25.44l-5.38-18.1c-10.44,14.03-27.15,21.04-50.15,21.04-15.98,0-29.76-3.46-41.34-10.4-11.58-6.93-20.51-16.79-26.79-29.6-6.28-12.8-9.42-27.84-9.42-45.13s3.5-32.21,10.52-44.76c7.01-12.56,16.76-22.26,29.23-29.11,12.48-6.85,26.95-10.27,43.42-10.27,14.35,0,27.27,2.85,38.77,8.56,11.5,5.71,20.51,14.11,27.03,25.2l-33.27,13.7c-2.61-4.24-6.65-7.91-12.11-11.01-5.47-3.1-12.44-4.65-20.92-4.65-7.67,0-14.68,1.96-21.04,5.87-6.36,3.91-11.42,9.75-15.17,17.49-3.75,7.75-5.63,17.41-5.63,28.99,0,17.12,3.91,30.29,11.74,39.51,7.83,9.21,18.1,13.82,30.82,13.82,6.03,0,11.82-.86,17.37-2.57,5.54-1.71,10.11-4.61,13.7-8.68,3.59-4.07,5.38-9.54,5.38-16.39v-4.65h-36.69v-31.31h75.34v92.47ZM344.21,161.23h-89.78c.65,8.48,3.79,14.84,9.42,19.08,5.63,4.24,11.86,6.36,18.71,6.36,5.71,0,10.64-.86,14.8-2.57,4.16-1.71,7.38-3.87,9.66-6.48l29.6,10.76c-6.36,9.29-14.31,16.14-23.85,20.55-9.54,4.4-19.29,6.6-29.23,6.6-13.05,0-24.58-2.57-34.61-7.71-10.03-5.14-17.86-12.51-23.48-22.14-5.63-9.62-8.44-21.12-8.44-34.49s2.97-24.05,8.93-33.51c5.95-9.46,13.86-16.79,23.73-22.02,9.87-5.22,20.67-7.83,32.41-7.83,13.37,0,24.83,3.14,34.37,9.42,9.54,6.28,16.76,14.92,21.65,25.93s6.93,23.69,6.12,38.04ZM436.43,119.64h-26.42v48.92c0,5.71,1.1,9.42,3.3,11.13,2.2,1.71,6.32,2.57,12.35,2.57h10.76v30.33h-23.48c-9.95,0-17.86-.86-23.73-2.57-5.87-1.71-10.07-5.05-12.6-10.03-2.53-4.97-3.79-12.19-3.79-21.65v-58.71h-20.06v-28.38h20.06v-30.33h37.18v30.33h26.42v28.38ZM586.86,212.6h-37.43v-92.96h-22.99v-28.38h60.42v121.33ZM583.93,64.73c-4.24,4.32-9.46,6.48-15.66,6.48s-11.21-2.16-15.53-6.48c-4.32-4.32-6.48-9.5-6.48-15.53s2.16-11.41,6.48-15.66c4.32-4.24,9.5-6.36,15.53-6.36s11.41,2.12,15.66,6.36c4.24,4.24,6.36,9.46,6.36,15.66s-2.12,11.21-6.36,15.53ZM725.32,212.6h-37.18v-64.58c0-5.71-.33-10.92-.98-15.66-.65-4.73-2.24-8.52-4.77-11.37-2.53-2.85-6.81-4.28-12.84-4.28-7.83,0-13.54,2.81-17.12,8.44-3.59,5.63-5.38,13.99-5.38,25.07v62.38h-37.18v-121.33h32.53l4.65,16.14c2.77-4.56,7.38-8.97,13.82-13.21,6.44-4.24,14.31-6.36,23.61-6.36,15.66,0,26.38,4.37,32.17,13.09,5.79,8.73,8.68,21.32,8.68,37.79v73.87ZM902.66,119.64h-26.42v48.92c0,5.71,1.1,9.42,3.3,11.13,2.2,1.71,6.32,2.57,12.35,2.57h10.76v30.33h-23.48c-9.95,0-17.86-.86-23.73-2.57-5.87-1.71-10.07-5.05-12.6-10.03-2.53-4.97-3.79-12.19-3.79-21.65v-58.71h-20.06v-28.38h20.06v-30.33h37.18v30.33h26.42v28.38ZM1033.78,187.53c-6.04,9.54-13.94,16.6-23.73,21.16-9.79,4.56-20.22,6.85-31.31,6.85s-21.77-2.29-31.56-6.85c-9.78-4.56-17.7-11.62-23.73-21.16-6.04-9.54-9.05-21.56-9.05-36.08s3.02-26.7,9.05-36.08c6.03-9.38,13.94-16.3,23.73-20.79,9.79-4.48,20.3-6.73,31.56-6.73s21.53,2.24,31.31,6.73c9.78,4.49,17.69,11.42,23.73,20.79,6.03,9.38,9.05,21.4,9.05,36.08s-3.02,26.54-9.05,36.08ZM1175.66,212.6h-32.29l-5.14-17.12c-3.59,6.04-8.04,10.89-13.33,14.55-5.3,3.67-12.6,5.5-21.89,5.5-10.76,0-19.2-2-25.32-5.99s-10.44-9.82-12.96-17.49c-2.53-7.66-3.79-16.96-3.79-27.89v-72.9h37.18v67.76c0,11.09,1.67,18.47,5.01,22.14,3.34,3.67,8.03,5.5,14.07,5.5,7.34,0,12.68-2.45,16.02-7.34,3.34-4.89,5.02-12.96,5.02-24.22v-63.85h37.43v121.33ZM1235.83,172.36c2.61,5.14,5.91,8.81,9.91,11.01,3.99,2.2,8.19,3.3,12.6,3.3,5.22,0,9.62-1.02,13.21-3.06,3.58-2.04,6.44-4.85,8.56-8.44l30.33,11.01c-4.08,7.34-9.13,13.17-15.17,17.49-6.04,4.32-12.44,7.38-19.2,9.17-6.77,1.79-13.42,2.69-19.94,2.69-13.37,0-24.67-2.69-33.88-8.07-9.21-5.38-16.23-12.92-21.04-22.63-4.81-9.7-7.22-20.92-7.22-33.64s2.61-23.85,7.83-33.39c5.22-9.54,12.51-16.92,21.89-22.14,9.38-5.22,20.18-7.83,32.41-7.83,7.01,0,13.98.98,20.92,2.94,6.93,1.96,13.37,5.26,19.33,9.91,5.95,4.65,10.8,10.97,14.55,18.96l-31.07,11.25c-1.96-5.22-4.85-8.89-8.68-11.01-3.83-2.12-8.12-3.18-12.84-3.18-4.4,0-8.65,1.1-12.72,3.3-4.08,2.2-7.38,5.83-9.91,10.88-2.53,5.06-3.79,11.91-3.79,20.55s1.3,15.78,3.91,20.92ZM1443.02,212.6h-37.18v-64.58c0-5.71-.33-10.92-.98-15.66-.65-4.73-2.24-8.52-4.77-11.37-2.53-2.85-6.81-4.28-12.84-4.28-7.83,0-13.54,2.81-17.12,8.44-3.59,5.63-5.38,13.99-5.38,25.07v62.38h-37.18V49.19h37.18v58.22c2.77-4.56,7.38-8.97,13.82-13.21,6.44-4.24,14.31-6.36,23.61-6.36,15.66,0,26.38,4.37,32.17,13.09,5.79,8.73,8.68,21.32,8.68,37.79v73.87Z"/>
</svg>