<?xml version="1.0" encoding="UTF-8"?>
<svg id="Capa_2" data-name="Capa 2" xmlns="http://www.w3.org/2000/svg" viewBox="0 0 259.07 256">
  <defs>
    <style>
      .cls-1 {
        fill: #11abb3;
      }
    </style>
  </defs>
  <path class="cls-1" d="M248.43,0v.02h-115.27c-.08,0-.16-.02-.25-.02v.02h-6.81s0,0,0,0H10.59C4.81-.1.07,8.16,0,18.47v219.05c.07,10.32,4.81,18.58,10.59,18.47h122.32s0,0,0,0h115.5c5.8.13,10.55-8.14,10.64-18.47V18.45c-.08-10.33-4.84-18.59-10.64-18.45ZM65.78,85.06c-4.26,2.4-9.14,3.61-14.64,3.61-6.02,0-11.21-1.22-15.55-3.65s-7.68-5.91-9.99-10.43c-2.32-4.52-3.48-9.85-3.48-15.99s1.2-11.45,3.61-15.94c2.4-4.49,5.81-7.96,10.21-10.43,4.4-2.46,9.59-3.69,15.55-3.69,5.5,0,10.3,1.22,14.38,3.65,4.08,2.43,7.22,5.71,9.43,9.82l-12.16,4.43c-1.27-2.37-3.01-4.07-5.21-5.08-2.2-1.01-4.49-1.52-6.86-1.52-2.66,0-5.1.74-7.3,2.22-2.2,1.48-3.94,3.62-5.21,6.43-1.27,2.81-1.91,6.18-1.91,10.12,0,6.08,1.4,10.73,4.21,13.94,2.81,3.21,6.27,4.82,10.38,4.82,2.2,0,4.47-.46,6.82-1.39,2.35-.93,4.18-2.63,5.52-5.13l12.08,4.43c-2.32,4.11-5.6,7.37-9.86,9.77ZM116.6,87.22h-15.68l-19.37-57.25h14.05l13.11,42.08,13.2-42.08h14.14l-19.45,57.25ZM233.87,172.1c-15.02,19.52-41.16,37.62-57.16,57.2-6.56,4.46-13.25,3.25-19.1-1.59-14.81-12.26-38.07-36.3-51.07-50.94-6.37-7.17-12.71-16.61-2.96-24.72,8.24-6.85,14.84-2.74,21.64,2.99,8.49,7.16,16.86,18.13,25.02,25.94.93.89,2.58,1.8,3.76,2.42v-104.57c1.67-11.82,14.71-17.99,23.94-9.8.73.64,3.88,5.34,3.88,5.68v108.69c1.8.45,2.06-.74,3.1-1.54,8.92-6.83,25.66-29.47,34.56-32.4,13.5-4.45,23.68,10.55,14.39,22.63Z"/>
</svg>