<?xml version="1.0" encoding="UTF-8"?>
<svg id="Capa_2" data-name="Capa 2" xmlns="http://www.w3.org/2000/svg" viewBox="0 0 516 256">
  <defs>
    <style>
      .cls-1 {
        fill: #11abb3;
      }
    </style>
  </defs>
  <path class="cls-1" d="M494.82,0v.02h-229.59c-.16,0-.33-.02-.49-.02v.02h-13.56s-.01,0-.02,0H21.1C9.58-.1.14,8.16,0,18.47v219.05c.14,10.32,9.58,18.58,21.1,18.47h243.64s.01,0,.02,0h230.06c11.54.13,21.02-8.14,21.18-18.47V18.45c-.16-10.33-9.64-18.59-21.18-18.45ZM159.05,198.66c-12.13,6.85-26.03,10.27-41.71,10.27-17.17,0-31.93-3.47-44.31-10.4s-21.87-16.83-28.47-29.71c-6.6-12.87-9.9-28.05-9.9-45.55s3.42-32.63,10.27-45.42c6.85-12.79,16.54-22.69,29.09-29.71,12.54-7.01,27.31-10.52,44.31-10.52,15.68,0,29.33,3.47,40.97,10.4,11.63,6.93,20.59,16.26,26.86,27.97l-34.66,12.63c-3.63-6.77-8.58-11.59-14.85-14.48-6.27-2.89-12.79-4.33-19.56-4.33-7.59,0-14.52,2.1-20.79,6.31-6.27,4.21-11.23,10.32-14.85,18.32-3.63,8.01-5.45,17.62-5.45,28.84,0,17.33,4,30.57,12.01,39.73,8,9.16,17.86,13.74,29.58,13.74,6.27,0,12.75-1.32,19.43-3.96,6.68-2.64,11.92-7.51,15.72-14.61l34.41,12.63c-6.6,11.72-15.97,21-28.1,27.85ZM291.59,208.94h-45.69l-56.42-166.77h40.94l38.2,122.58,38.45-122.58h41.19l-56.67,166.77ZM474.46,148.97c-15.02,19.52-41.16,37.62-57.16,57.2-6.56,4.46-13.25,3.25-19.1-1.59-14.81-12.26-38.07-36.3-51.07-50.94-6.37-7.17-12.71-16.61-2.96-24.72,8.24-6.85,14.84-2.74,21.64,2.99,8.49,7.16,16.86,18.13,25.02,25.94.93.89,2.58,1.8,3.76,2.42V55.71c1.67-11.82,14.71-17.99,23.94-9.8.73.64,3.88,5.34,3.88,5.68v108.69c1.8.45,2.06-.74,3.1-1.54,8.92-6.83,25.66-29.47,34.56-32.4,13.5-4.45,23.68,10.55,14.39,22.63Z"/>
</svg>