<?xml version="1.0" encoding="UTF-8"?>
<svg id="Capa_2" data-name="Capa 2" xmlns="http://www.w3.org/2000/svg" viewBox="0 0 462 256">
  <defs>
    <style>
      .cls-1 {
        fill: #11abb3;
      }
    </style>
  </defs>
  <path class="cls-1" d="M443.03,0v.02h-205.56c-.15,0-.29-.02-.44-.02v.02h-12.14s-.01,0-.02,0H18.89C8.58-.1.13,8.16,0,18.47v219.05c.12,10.32,8.58,18.58,18.89,18.47h218.14s.01,0,.02,0h205.98c10.34.13,18.82-8.14,18.97-18.47V18.45C461.85,8.12,453.36-.13,443.03,0ZM128.04,203.98c-8.85,5-18.99,7.49-30.42,7.49-12.52,0-23.29-2.53-32.32-7.58s-15.95-12.28-20.76-21.67c-4.82-9.39-7.22-20.46-7.22-33.22s2.5-23.8,7.49-33.13c4.99-9.33,12.07-16.55,21.21-21.67,9.15-5.11,19.92-7.67,32.32-7.67,11.43,0,21.4,2.53,29.88,7.58,8.49,5.06,15.01,11.86,19.59,20.4l-25.28,9.21c-2.65-4.93-6.26-8.46-10.83-10.56-4.58-2.1-9.33-3.16-14.26-3.16-5.54,0-10.59,1.53-15.17,4.6-4.58,3.07-8.19,7.52-10.83,13.36-2.65,5.84-3.97,12.85-3.97,21.03,0,12.64,2.92,22.3,8.76,28.98,5.84,6.68,13.03,10.02,21.58,10.02,4.57,0,9.3-.96,14.17-2.89,4.87-1.92,8.69-5.48,11.46-10.65l25.1,9.21c-4.82,8.55-11.65,15.32-20.49,20.31ZM228.16,209.3h-33.04l-40.8-120.61h29.61l27.62,88.65,27.8-88.65h29.79l-40.98,120.61ZM425.17,150.73c-14.58,18.95-39.95,36.52-55.48,55.52-6.36,4.33-12.86,3.15-18.54-1.55-14.38-11.9-36.95-35.23-49.57-49.44-6.18-6.96-12.34-16.12-2.87-23.99,8-6.65,14.4-2.66,21,2.9,8.24,6.95,16.37,17.6,24.29,25.18.9.86,2.5,1.74,3.65,2.35V60.21c1.62-11.48,14.28-17.47,23.23-9.52.7.63,3.77,5.18,3.77,5.52v105.5c1.75.44,2-.72,3.01-1.49,8.66-6.63,24.91-28.6,33.55-31.45,13.1-4.32,22.99,10.24,13.97,21.96Z"/>
</svg>